<?xml version="1.0" encoding="utf-8"?>
<!-- Generator: Adobe Illustrator 27.5.0, SVG Export Plug-In . SVG Version: 6.00 Build 0)  -->
<svg version="1.1" xmlns="http://www.w3.org/2000/svg" xmlns:xlink="http://www.w3.org/1999/xlink" x="0px" y="0px"
	 viewBox="0 0 500 500" style="enable-background:new 0 0 500 500;" xml:space="preserve">
<g id="BACKGROUND">
	<rect style="fill:#4A303E;" width="500" height="500"/>
</g>
<g id="OBJECTS">
	<g>
		<path style="fill:#433959;" d="M472.489,299.718c0,0-79.16-5.197-139.173-56.036s-78.153-128.068-78.153-128.068
			s79.16,5.197,139.173,56.036S472.489,299.718,472.489,299.718z"/>
		
			<line style="fill:none;stroke:#514769;stroke-width:2.2219;stroke-linecap:round;stroke-linejoin:round;stroke-miterlimit:10;" x1="255.163" y1="115.615" x2="472.489" y2="299.718"/>
	</g>
	<path style="fill:#433959;" d="M486.606,0c0,0-45.557,36.292-53.302,71.667c0,0,47.695,9.389,66.695-10.972V0H486.606z"/>
	<path style="fill:#514769;" d="M367.333,0c0,0-37.667,18.333-47,33c0,0,122.256-6.333,152.461-32.5L367.333,0z"/>
	<path style="fill:#514769;" d="M-0.378,33.659c0,0,110.413,43.841,207.39,0.008c0,0,57.988-28.333,93.988-33.167L0,0L-0.378,33.659
		z"/>
	<path style="fill:#433959;" d="M0,0l-0.378,33.659c0,0,82.014,32.558,166.756,13.495c14.214-11.021,30.405-26.955,38.751-46.813
		L0,0z"/>
	<g>
		<path style="fill:#514769;" d="M-0.5,135.155c0,0,96.348-10.14,147.5,2.143c0,0-6.667-40.298-48-66.298S-0.5,27.75-0.5,27.75
			V135.155z"/>
		<path style="fill:#433959;" d="M127.209,96.295C120.335,87.553,111.172,78.656,99,71C57.667,45-0.5,27.75-0.5,27.75v107.405
			c0,0,23.162-2.436,52.798-3.473C67.368,121.971,96.315,105.062,127.209,96.295z"/>
		<path style="fill:none;stroke:#433959;stroke-width:2;stroke-linecap:round;stroke-linejoin:round;stroke-miterlimit:10;" d="
			M147,137.298c0,0-76.167-48.631-110.75-59.798"/>
	</g>
	<g>
		<path style="fill:#36819A;" d="M481.481,96.276c-3.999-11.54-11.603-24.965-20.246-38.062L446.705,61V47.667
			c0,0-12.372-2.667-15.803-2.667c-1.998,0,3.69-9.042,8.79-16.596C426.839,11.881,416.228,0,416.228,0H387
			c0,0,7,119.002,33.5,153.001s57.833,54.666,57.833,54.666S494.628,134.219,481.481,96.276z"/>
		
			<path style="fill:none;stroke:#36819A;stroke-width:2.2219;stroke-linecap:round;stroke-linejoin:round;stroke-miterlimit:10;" d="
			M476.227,195.82C483.151,234.766,500,329.54,500,329.54"/>
		
			<path style="fill:none;stroke:#4FB2AC;stroke-width:2.2219;stroke-linecap:round;stroke-linejoin:round;stroke-miterlimit:10;" d="
			M478.333,207.667c0,0-11.333-57.333-26.667-97.333C436.333,70.333,403.376,0,403.376,0"/>
		
			<path style="fill:none;stroke:#4FB2AC;stroke-width:2.2219;stroke-linecap:round;stroke-linejoin:round;stroke-miterlimit:10;" d="
			M463.234,145.643c0,0-34.149-23.453-59.858-24.381"/>
		
			<line style="fill:none;stroke:#4FB2AC;stroke-width:2.2219;stroke-linecap:round;stroke-linejoin:round;stroke-miterlimit:10;" x1="430.903" y1="60.694" x2="390.625" y2="39.554"/>
		
			<line style="fill:none;stroke:#4FB2AC;stroke-width:2.2219;stroke-linecap:round;stroke-linejoin:round;stroke-miterlimit:10;" x1="388.495" y1="18.985" x2="420.5" y2="37.344"/>
	</g>
	<g>
		<path style="fill:#36819A;" d="M384.251,59C326.5,37,243.08,34.5,218.29,10c0,0,4.456,15.488,18.885,30.822L251.556,39
			l-4.19,11.106C254.525,55.683,263.297,60.772,274,64.5l56.084,51.344L355,141.02l74,2.385l40.5,29.05
			C469.5,172.456,442.002,81,384.251,59z"/>
		<path style="fill:#514769;" d="M408.299,73.131c-15.644-5.997-33.957-4.59-58.796-1.131C310.005,77.5,274,64.5,274,64.5
			l56.084,51.344L355,141.02l74,2.385l40.5,29.05C469.5,172.456,449.659,106.49,408.299,73.131z"/>
		<path style="fill:#433959;" d="M408.299,73.131c-15.644-5.997-33.957-4.59-58.796-1.131C310.005,77.5,274,64.5,274,64.5
			l37.599,34.422C345.728,104.826,382.852,98.025,408.299,73.131z"/>
		
			<path style="fill:none;stroke:#433959;stroke-width:2.2219;stroke-linecap:round;stroke-linejoin:round;stroke-miterlimit:10;" d="
			M344.589,77.5c0,0,88.411,42.411,124.911,94.956"/>
		
			<path style="fill:none;stroke:#433959;stroke-width:2.2219;stroke-linecap:round;stroke-linejoin:round;stroke-miterlimit:10;" d="
			M422.294,86.422c0,0,5.885,20.245,2.295,40.911"/>
		
			<path style="fill:none;stroke:#514769;stroke-width:2.2219;stroke-linecap:round;stroke-linejoin:round;stroke-miterlimit:10;" d="
			M466.073,167.75c13.927,21,28.677,51.91,33.927,72.19"/>
	</g>
	<g>
		<path style="fill:#514769;" d="M32.833,260C19.048,273.981,8.331,289.009,0,303.82v94.801l20.001,0.46
			C43.502,340.662,32.833,260,32.833,260z"/>
		
			<path style="fill:none;stroke:#433959;stroke-width:2.2219;stroke-linecap:round;stroke-linejoin:round;stroke-miterlimit:10;" d="
			M32.833,260c0,0-19.967,59.331-32.57,109.25"/>
	</g>
	<path style="fill:#F5C05B;" d="M188.698,203.647L109.5,254c0,0-42,15-58.5,81S20,500,20,500h472l-52.5-239
		c0,0-60.625-56.898-108.5-60.5c-43.7-3.288-80.233-8.57-80.233-8.57L188.698,203.647z"/>
	<path style="fill:#514769;" d="M348,458.293c0,0-44.5-57.319-36.5-80.306c8-22.987,40.124,12.266,62.5,68.513L348,458.293z"/>
	<g>
		<path style="fill:#F8EBCC;" d="M260.586,400.516l3.466-4.39c-1.253-2.503-3.228-4.709-5.721-6.47l-5.745,5.86l1.633-8.163
			c-3.038-1.297-6.51-2.036-10.201-2.036c-0.365,0-0.721,0.029-1.082,0.043c-0.717,3.664-1.575,7.944-1.85,8.906
			c-0.317,1.11-1.941-4.215-3.087-8.26c-4.122,0.95-7.732,2.845-10.434,5.377l3.324,7.133l-6.55-3.061
			c-1.205,2.136-1.89,4.496-1.89,6.988c0,9.458,9.656,17.126,21.568,17.126c11.912,0,21.568-7.668,21.568-17.126
			c0-0.867-0.107-1.713-0.264-2.546L260.586,400.516z"/>
		<path style="fill:none;stroke:#36819A;stroke-width:3;stroke-linecap:round;stroke-linejoin:round;stroke-miterlimit:10;" d="
			M244.018,419.569c0,0-5.932,49.947,13.818,76.447"/>
		<path style="fill:#36819A;" d="M243.59,424.517l-17.504-8.75c0,0,6-9.5,12.25-3.5c0,0,11.947-6.981,21.473,3.635L243.59,424.517z"
			/>
	</g>
	<path style="fill:#433959;" d="M191.584,457.633c0,0,49.734,18.216,58.242,34.625c0,0,37.919-57.925,73.213-55.591V500H189.503
		L191.584,457.633z"/>
	<path style="fill:#514769;" d="M301.343,479.938c0,0-43.899-33.858-41.419-47.372c2.48-13.514,22.072-6.701,54.77,25.65
		l2.211,31.043L301.343,479.938z"/>
	<g>
		<path style="fill:#F8EBCC;" d="M290.833,383l5.13-1.368c0.113-0.862,0.191-1.735,0.191-2.629c0-2.175-0.356-4.264-0.996-6.226
			l-4.992-0.111l3.511-3.322c-2.093-3.805-5.388-6.846-9.368-8.64l-3.949,4.155L279,359.162c-0.957-0.14-1.927-0.236-2.922-0.236
			c-3.585,0-6.943,0.951-9.856,2.597l1.278,5.978l-4.611-3.61c-2.477,2.163-4.409,4.921-5.588,8.056l4.533,4.888l-5.833,2.17
			c0,2.841,0.598,5.54,1.662,7.99l5.671,1.674l-2.121,3.799c3.673,4.054,8.964,6.616,14.865,6.616
			c9.293,0,17.09-6.323,19.378-14.895L290.833,383z"/>
		
			<line style="fill:none;stroke:#36819A;stroke-width:3;stroke-linecap:round;stroke-linejoin:round;stroke-miterlimit:10;" x1="279" y1="392.329" x2="296.155" y2="479.146"/>
		<path style="fill:#36819A;" d="M280.914,402.017c-9.914,1.15-16.248-5.684-16.248-5.684s0.667-4.305,7.833-4.305
			c0,0,3.211-8.777,10.333-3.495c0,0,5.179-3.449,11.256-0.658C294.09,387.875,290.829,400.867,280.914,402.017z"/>
	</g>
	<g>
		<path style="fill:#514769;" d="M0,399.081c0,0,2.235-30.401,26.333-58.081C58.981,303.5,61,246.916,61,246.916
			S82.659,290.5,81.58,311.5c0,0-26.58,27.792-20.58,42.146c0,0,7.231,7.354,20.615-16.646c0,0,10.152,60.954-25.742,163l0,0H0
			V399.081z"/>
		<path style="fill:#459EA8;" d="M0,399.081v36.398c72.6-97.895,61-188.563,61-188.563S58.981,303.5,26.333,341
			C2.235,368.681,0,399.081,0,399.081z"/>
		
			<line style="fill:none;stroke:#36819A;stroke-width:2.2219;stroke-linecap:round;stroke-linejoin:round;stroke-miterlimit:10;" x1="13.614" y1="358.926" x2="44.5" y2="349.5"/>
	</g>
	<path style="fill:#459EA8;" d="M345.5,500c0,0-54.5-56.531-81.5-37.963c0,0-12,11.213,10.5,20.084
		c17.011,6.706,35,17.879,35,17.879H345.5z"/>
	<g>
		<path style="fill:#F8EBCC;" d="M335.362,309.994l15.667-6.041c0.019-0.71,0.005-1.42-0.087-2.128
			c-0.446-3.444-1.486-6.674-3.002-9.629l-12.867,4.223l8.627-10.437c-2.79-3.167-6.237-5.785-10.129-7.71
			c-3.073,4.478-7.951,11.536-8.562,12.107c-0.632,0.59,0.398-9.019,1.067-14.8c-4.159-0.982-8.603-1.251-13.152-0.662
			c-0.906,0.117-1.796,0.276-2.676,0.455l1.901,14.687l-7.774-12.982c-3.827,1.472-7.284,3.549-10.26,6.082l8.073,15.927
			l-12.401-11.508c-2.204,2.711-3.957,5.733-5.157,8.964l10.032,12.568l-11.885-2.489c-0.01,1.321,0.059,2.654,0.232,3.997
			c2.238,17.289,38.018,26.909,38.018,26.909s22.872-13.098,28.692-27.573L335.362,309.994z"/>
		<path style="fill:none;stroke:#36819A;stroke-width:3;stroke-linecap:round;stroke-linejoin:round;stroke-miterlimit:10;" d="
			M321.027,337.526c0,0,5.845,81.58,15.934,144.243"/>
		<path style="fill:#36819A;" d="M321.292,341.073c0,0-16.402-7.473-20.066-8.511c0,0,3.038-6.191,8.877-4.678
			c0,0,7.183-10.005,12.886-3.685c0,0,10.143-2.22,14.371,5.123L321.292,341.073z"/>
	</g>
	<g>
		<path style="fill:#36819A;" d="M0,500c0,0,36.578-47.275,111.289-47.888C186,451.5,219.5,443.5,256,446.5c0,0-29,39.5-51,53.5H0z"
			/>
		<path style="fill:#514769;" d="M174.64,449.668c-17.547,1.185-38.091,2.237-63.351,2.444C36.578,452.725,0,500,0,500h105.658
			C136.432,484.522,160.329,463.865,174.64,449.668z"/>
		
			<path style="fill:none;stroke:#459EA8;stroke-width:2.2219;stroke-linecap:round;stroke-linejoin:round;stroke-miterlimit:10;" d="
			M61,500c0,0,39.582-17,92.541-24.5C206.5,468,256,446.5,256,446.5"/>
		
			<path style="fill:none;stroke:#459EA8;stroke-width:2.2219;stroke-linecap:round;stroke-linejoin:round;stroke-miterlimit:10;" d="
			M153.541,475.5c0,0,46.874,9.594,70.917,8.047"/>
		
			<line style="fill:none;stroke:#459EA8;stroke-width:2.2219;stroke-linecap:round;stroke-linejoin:round;stroke-miterlimit:10;" x1="118.333" y1="482.121" x2="165.5" y2="500"/>
	</g>
	<path style="fill:#AF6781;" d="M188.698,212.5l-8.738-41.5l62.541-10.622l10.25,39.122c0,0,7.327,40.29-18.75,46.5
		C202.505,253.5,188.698,212.5,188.698,212.5z"/>
	<path style="fill:#914B60;" d="M244.018,166.172l-1.518-5.794L179.959,171l5.255,24.954
		C226.993,206.575,241.38,173.506,244.018,166.172z"/>
	<g>
		<path style="fill:#FF9700;" d="M227.572,129.734c-2.593,22.444-20.862,38.771-40.805,36.467
			c-19.943-2.304-32.473-22.242-31.415-44.81c1.574-33.59,20.862-38.771,40.805-36.467
			C216.099,87.227,230.164,107.29,227.572,129.734z"/>
		<path style="fill:#F4AF3E;" d="M165.693,141.758c0,0-2.909-93.532,58.054-90.909c49.662,2.137,17.666,79.823,17.666,79.823
			L165.693,141.758z"/>
		<path style="fill:#AF6781;" d="M176.664,151.663c4.002,6.616,3.033,14.528-2.165,17.672c-5.198,3.145-12.656,0.331-16.659-6.285
			c-4.002-6.616-3.033-14.528,2.165-17.672C165.203,142.234,172.661,145.048,176.664,151.663z"/>
		<path style="fill:none;stroke:#914B60;stroke-width:2;stroke-linecap:round;stroke-linejoin:round;stroke-miterlimit:10;" d="
			M159.083,153.01c0,0,6.514-0.517,11.801,6.138"/>
		
			<ellipse transform="matrix(0.1802 -0.9836 0.9836 0.1802 64.9835 362.3631)" style="fill:#AF6781;" cx="249.873" cy="142.198" rx="14" ry="11"/>
		<path style="fill:none;stroke:#914B60;stroke-width:2;stroke-linecap:round;stroke-linejoin:round;stroke-miterlimit:10;" d="
			M244.489,145.643c0,0,5.647-8.801,10.673-9.245"/>
		
			<ellipse transform="matrix(0.9836 -0.1805 0.1805 0.9836 -22.4813 39.7141)" style="fill:#C3838F;" cx="207.012" cy="143.405" rx="41.125" ry="46.548"/>
		<path style="fill:#AF6781;" d="M198.611,97.621c-7.161,1.314-13.495,4.662-18.652,9.428c10.429,3.301,28.68,8.397,35.334,5.993
			c0,0,4.246-1.796,4.286-4.345c0,0,9.132,4.746,17.681,4.634C227.742,101.409,213.278,94.93,198.611,97.621z"/>
		<path style="fill:#514769;" d="M234.477,103.288c0.968-1.235,1.413-2.85,0.254-4.826c-2.96-5.049-12.421-2.588-12.421-2.588
			s10.932-5.526-1.843-10.045c-12.775-4.519-26.466,5.365-26.466,5.365s1.408-5.374-0.124-7.603
			c-1.965-2.859-11.789-1.634-20.875,10.439c-0.523,0.695-0.995,1.392-1.442,2.088c-1.248-4.701-3.553-9.875-6.698-2.119
			c-1.752,4.321-1.761,9.42-1.055,14.19c-1.97-4.613-4.203-9.36-6.17-6.002c-4.839,8.259,1.376,21.352,1.376,21.352
			c-0.695,6.521,0.993,19.262,7.307,25.85c0,0,5.484-15.257,4.7-26.29c11.427-6.322,16.859-19.09,16.859-19.09
			c29.826,7.405,30.291-0.22,30.291-0.22s0.143,0.104,0.4,0.277c0.97,0.693,1.895,1.234,2.774,1.65
			c4.102,2.185,11.671,5.21,19.643,3.291C248.021,107.313,241.188,104.938,234.477,103.288z"/>
		<path style="fill:none;stroke:#433959;stroke-linecap:round;stroke-linejoin:round;stroke-miterlimit:10;" d="M187.879,104.009
			c0,0,4.16-8.727-0.152-10.986c-4.312-2.259-10.606,4.996-10.606,4.996"/>
		<path style="fill:none;stroke:#433959;stroke-linecap:round;stroke-linejoin:round;stroke-miterlimit:10;" d="M202.505,96.907
			c0,0,7.871-1.432,12.317,0.633c4.446,2.065,3.349,6.248,3.349,6.248s-1.748,4.331-10.093,3.497"/>
		
			<ellipse transform="matrix(0.9969 -0.079 0.079 0.9969 -10.5406 15.0686)" style="fill:none;stroke:#F8EBCC;stroke-width:2.2219;stroke-linecap:round;stroke-linejoin:round;stroke-miterlimit:10;" cx="185.178" cy="140.754" rx="15.692" ry="15.692"/>
		
			<ellipse transform="matrix(0.9995 -0.0327 0.0327 0.9995 -4.1816 7.4222)" style="fill:none;stroke:#F8EBCC;stroke-width:2.2219;stroke-linecap:round;stroke-linejoin:round;stroke-miterlimit:10;" cx="224.6" cy="131.427" rx="15.692" ry="15.692"/>
		
			<path style="fill:none;stroke:#F8EBCC;stroke-width:2.2219;stroke-linecap:round;stroke-linejoin:round;stroke-miterlimit:10;" d="
			M200.449,137.141c0,0,4.195-4.846,8.881-2.101"/>
		<path style="fill:#514769;" d="M185.123,141.624c-0.22-1.2,0.574-2.35,1.773-2.571c1.2-0.22,2.35,0.574,2.571,1.773
			c0.22,1.2-0.574,2.351-1.773,2.571C186.494,143.618,185.343,142.824,185.123,141.624z"/>
		<path style="fill:#514769;" d="M220.674,135.101c-0.22-1.2,0.574-2.351,1.774-2.571c1.2-0.22,2.35,0.574,2.571,1.773
			c0.22,1.2-0.574,2.35-1.774,2.571C222.046,137.094,220.895,136.301,220.674,135.101z"/>
		<path style="fill:none;stroke:#914B60;stroke-width:2;stroke-linecap:round;stroke-linejoin:round;stroke-miterlimit:10;" d="
			M199.368,161.762c0,0,11.011,4.588,21.763-3.993"/>
		<path style="fill:none;stroke:#914B60;stroke-width:2;stroke-linecap:round;stroke-linejoin:round;stroke-miterlimit:10;" d="
			M206.208,139.026l9.321,8.61c1.968,1.818,1.214,5.087-1.352,5.859l-5.036,1.514"/>
		<path style="fill:none;stroke:#514769;stroke-width:3;stroke-linecap:round;stroke-linejoin:round;stroke-miterlimit:10;" d="
			M180.208,135.155c0,0,1.901-4.416,8.49-3.591"/>
		<path style="fill:none;stroke:#514769;stroke-width:3;stroke-linecap:round;stroke-linejoin:round;stroke-miterlimit:10;" d="
			M226.648,125.332c0,0-3.553-3.238-9.215,0.23"/>
		
			<line style="fill:none;stroke:#AF6781;stroke-width:2;stroke-linecap:round;stroke-linejoin:round;stroke-miterlimit:10;" x1="209.16" y1="173.815" x2="216.567" y2="172.456"/>
	</g>
	<path style="fill:none;stroke:#B8713C;stroke-width:2.2219;stroke-linecap:round;stroke-linejoin:round;stroke-miterlimit:10;" d="
		M172.605,213.879c0,0,10.376,58.268,62.895,48.621c49-9,27.921-68.879,27.921-68.879"/>
	<g>
		<path style="fill:#824F51;" d="M118.333,228.6c0,0,7.685-3.964,20.551,6.718L112,252C112,252,104.667,234.699,118.333,228.6z"/>
		<path style="fill:#C07B5E;" d="M125.624,410.738c0,0-36.12-121.525-33.745-162.184c0.081-1.396,0.507-2.744,1.274-3.914
			c2.21-3.373,8.421-9.958,25.18-16.041c0,0-2.833,22.4,5.167,60.4s30.041,110.081,30.041,110.081L125.624,410.738z"/>
		<path style="fill:#914B60;" d="M125.624,410.738l27.917-11.657c0,0-7.667-25.075-15.599-53.442l-25.16,18.649
			C119.685,390.756,125.624,410.738,125.624,410.738z"/>
	</g>
	<g>
		<path style="fill:#824F51;" d="M305.289,187.621c0,0-8.51,0.461-12.399,9.42L337.5,202C337.5,202,326.078,186.743,305.289,187.621
			z"/>
		<path style="fill:#C07B5E;" d="M383.168,378.044c0,0-42.378-168.801-77.878-190.422l28.545,1.913
			c4.564,0.306,8.761,2.599,11.469,6.286c12.642,17.213,52.408,80.653,66.697,170.472L383.168,378.044z"/>
		<path style="fill:#914B60;" d="M372.435,338.854c6.667,22.995,10.732,39.19,10.732,39.19L412,366.292
			c-5.739-36.074-15.588-67.887-26.138-94.165C382.551,289.324,377.785,313.507,372.435,338.854z"/>
	</g>
	<g>
		<path style="fill:#AF6781;" d="M355,160.378l-28.333-14.735c0,0-11.333-5.976-16.667-18.31c-5.333-12.333-18-34.747-18-34.747
			s-4.667-8.323,7-10.288c11.667-1.965,23,15.368,27.333,28.368c0,0,4.333,12.45,28.667,14.392V160.378z"/>
		<path style="fill:#C3838F;" d="M412.333,418.333l-30.667-206.667l-27-25.667c0,0-9-9.165-10.333-19.583
			c-1.333-10.417-4-37.084-8.667-44.084c-4.667-7-6-20,8.333-19c14.333,1,23.333,24,23.333,24s8.553,7.369,30,7.369
			c18.895,0,31.667,8.703,31.667,8.703s58.333,123.262,71,154.928v160C500,458.333,435,480.333,412.333,418.333z"/>
		<path style="fill:#AF6781;" d="M500,391.933v-51.018l-106.59-50.11l9.213,62.088c14.064,6.787,31.635,13.311,48.877,17.971
			C469.015,375.599,486.518,384.231,500,391.933z"/>
		<path style="fill:#AF6781;" d="M397,145.643c13-3.643,33.058,0,33.058,0c-0.686-1.452-1.058-2.238-1.058-2.238
			s-12.772-8.703-31.667-8.703c-21.447,0-30-7.369-30-7.369l5.917,18.31C373.25,145.643,384,149.286,397,145.643z"/>
		<path style="fill:none;stroke:#914B60;stroke-width:2;stroke-linecap:round;stroke-linejoin:round;stroke-miterlimit:10;" d="
			M373.25,145.643c0,0,23.25,0.607,34.75,22.107"/>
		<path style="fill:none;stroke:#914B60;stroke-width:2;stroke-linecap:round;stroke-linejoin:round;stroke-miterlimit:10;" d="
			M381.667,211.667c0,0,13.333,8.833,26.333,6.833"/>
	</g>
	<g>
		<path style="fill:#459EA8;" d="M500,374.667c0,0-66.5,53.236-79.5,125.333H500V374.667z"/>
		
			<line style="fill:none;stroke:#36819A;stroke-width:2.2219;stroke-linecap:round;stroke-linejoin:round;stroke-miterlimit:10;" x1="443.688" y1="500" x2="500" y2="426.007"/>
		
			<line style="fill:none;stroke:#36819A;stroke-width:2.2219;stroke-linecap:round;stroke-linejoin:round;stroke-miterlimit:10;" x1="481.481" y1="452.112" x2="483.151" y2="390.253"/>
		
			<line style="fill:none;stroke:#36819A;stroke-width:2.2219;stroke-linecap:round;stroke-linejoin:round;stroke-miterlimit:10;" x1="451.863" y1="489.258" x2="500" y2="489.258"/>
	</g>
	<g>
		<path style="fill:#4FB2AC;" d="M266.482,350.766C275.152,330.895,279,316.5,279,316.5c-11,8-93.5,24.5-93.5,24.5
			C92,360.5,0,481.5,0,481.5V500h42.045c27.414-14.653,38.468-14.004,70.175-22.634c-10.022-9.553-22.315-23.902-12.585-29.366
			c11.562-6.493,36.912,10.061,48.24,18.241c6.166-2.139,12.858-4.554,20.172-7.306c37.765-14.213,64.422-46.108,82.128-76.121
			c-13.36-2.116-36.069-7.133-33.347-16.522C219.652,356.552,250.482,352.318,266.482,350.766z M160.802,443.469
			c-6.518,0-11.802-4.243-11.802-9.476c0-5.234,5.284-9.476,11.802-9.476c6.518,0,11.803,4.243,11.803,9.476
			C172.605,439.227,167.321,443.469,160.802,443.469z"/>
		<path style="fill:#39759A;" d="M20.001,457.531c0.022-0.013,14.166-8.154,45.32,1.404L79.44,446.5c0,0,18.227-2.238,23.894-15.119
			c0,0,22.415-4.905,22.291-20.643l-15.856-7.076c0,0,33.048-3.087,33.39-23.125l-36.175-2.55
			C70.543,403.512,39.178,435.849,20.001,457.531z"/>
		
			<path style="fill:none;stroke:#36819A;stroke-width:2.2219;stroke-linecap:round;stroke-linejoin:round;stroke-miterlimit:10;" d="
			M0,500c0,0,74.082-90.5,153.541-130.75C233,329,279,316.5,279,316.5"/>
		
			<polyline style="fill:none;stroke:#36819A;stroke-width:2.2219;stroke-linecap:round;stroke-linejoin:round;stroke-miterlimit:10;" points="
			185.5,341 179.959,356.276 216.829,366.292 		"/>
		
			<path style="fill:none;stroke:#36819A;stroke-width:2.2219;stroke-linecap:round;stroke-linejoin:round;stroke-miterlimit:10;" d="
			M109.768,396.333c0,0,66.389,23.876,107.06,30.271"/>
		
			<polyline style="fill:none;stroke:#36819A;stroke-width:2.2219;stroke-linecap:round;stroke-linejoin:round;stroke-miterlimit:10;" points="
			32.833,443.469 30,466.5 99.636,480.604 		"/>
		
			<line style="fill:none;stroke:#36819A;stroke-width:2.2219;stroke-linecap:round;stroke-linejoin:round;stroke-miterlimit:10;" x1="20" y1="477.358" x2="64.818" y2="489.736"/>
	</g>
	<path style="fill:#514769;" d="M385.153,466.123c0,0-22.314-96.398,20.216-119.959c42.53-23.561,10.766,33.469,9.488,51.096
		c-1.278,17.626,1.396,63.09,1.396,63.09L385.153,466.123z"/>
	<g>
		<path style="fill:#C3838F;" d="M20,457.333c0,0-13.333-39.667,6.333-48c0,0-0.333-13.667,8.333-16c0,0,2.333-13.667,18-21
			c15.667-7.333,17.667-11.667,28.667-9c11,2.667,36,9.333,52.667,9c16.667-0.333,10.667,24.667-18.667,24
			c0,0,17,10.333,7.333,20.667c-8.109,8.668-19.333,5-19.333,5s5.186,8.404-5.667,14.667c-9.532,5.5-25.333,0-25.333,0
			s15,13.333,4.333,20.667C66,464.667,40,444.667,37.333,440.667L20,457.333z"/>
		<path style="fill:none;stroke:#914B60;stroke-width:2;stroke-linecap:round;stroke-linejoin:round;stroke-miterlimit:10;" d="
			M26.333,409.333c0,0,8.333-4.857,17,1.405c8.667,6.262,29,25.929,29,25.929"/>
		
			<line style="fill:none;stroke:#914B60;stroke-width:2;stroke-linecap:round;stroke-linejoin:round;stroke-miterlimit:10;" x1="37.333" y1="440.667" x2="28.333" y2="433.333"/>
		<path style="fill:none;stroke:#914B60;stroke-width:2;stroke-linecap:round;stroke-linejoin:round;stroke-miterlimit:10;" d="
			M34.667,393.333c0,0,14-4.333,29.333,5C79.333,407.667,103.333,422,103.333,422"/>
		<path style="fill:none;stroke:#914B60;stroke-width:2;stroke-linecap:round;stroke-linejoin:round;stroke-miterlimit:10;" d="
			M41.494,380.517c0,0,15.172-10.851,27.506-5.851c12.333,5,46.333,21.667,46.333,21.667"/>
		
			<path style="fill:none;stroke:#914B60;stroke-width:1.5536;stroke-linecap:round;stroke-linejoin:round;stroke-miterlimit:10;" d="
			M121.28,372.031c0,0-4.729,4.083-2.205,10.809c0,0,2.719,1.677,6.991,1.094c4.272-0.583,14.565-5.671,10.681-10.021"/>
		<path style="fill:none;stroke:#914B60;stroke-width:1.5;stroke-linecap:round;stroke-linejoin:round;stroke-miterlimit:10;" d="
			M109.428,397.954c0,0-6.089,0.273-7.313,8.438c0,0,0.875,3.75,5.5,4.875s14.194,0.328,12.688-5.813"/>
		
			<path style="fill:none;stroke:#914B60;stroke-width:1.6113;stroke-linecap:round;stroke-linejoin:round;stroke-miterlimit:10;" d="
			M89.729,416.686c0,0-9.001,1.622-10.284,7.941c0,0-0.414,3.45,5.599,4.749c6.012,1.299,17.465-0.311,13.927-7.789"/>
		
			<path style="fill:none;stroke:#914B60;stroke-width:1.7161;stroke-linecap:round;stroke-linejoin:round;stroke-miterlimit:10;" d="
			M67.219,437c0,0-9.224,3.861-8.151,7.293c1.073,3.432,7.079,9.224,15.016,7.508s0-9.51,0-9.51"/>
		<path style="fill:none;stroke:#914B60;stroke-width:2;stroke-linecap:round;stroke-linejoin:round;stroke-miterlimit:10;" d="
			M36.25,423.25c0,0,4.431-9.17,11.591-8.96"/>
		<path style="fill:none;stroke:#914B60;stroke-width:2;stroke-linecap:round;stroke-linejoin:round;stroke-miterlimit:10;" d="
			M44.5,403.662c0,0,5.497-7.912,11.373-9.162"/>
		<path style="fill:none;stroke:#914B60;stroke-width:2;stroke-linecap:round;stroke-linejoin:round;stroke-miterlimit:10;" d="
			M61,386.408c0,0,1-7.325,8-11.742"/>
		
			<line style="fill:none;stroke:#914B60;stroke-width:2;stroke-linecap:round;stroke-linejoin:round;stroke-miterlimit:10;" x1="74.729" y1="369.25" x2="81.333" y2="363.333"/>
	</g>
	<path style="fill:#4FB2AC;" d="M389.5,500c0,0-57.5-112.338-90.5-100.919C266,410.5,314.896,485,340.698,500H389.5z"/>
	<path style="fill:#514769;" d="M368.502,500H389.5c0,0-17.032-33.271-37.876-61.76C353.877,452.331,364.163,478.3,368.502,500z"/>
	<path style="fill:none;stroke:#36819A;stroke-width:2.2219;stroke-linecap:round;stroke-linejoin:round;stroke-miterlimit:10;" d="
		M299.5,407.164c0,0,2.5,13.545,8.5,19.44c6,5.896,12,8.232,14,23.064c2,14.832,11.939,13.832,16.72,20.832
		C343.5,477.5,360,500,360,500"/>
	<path style="fill:#4FB2AC;" d="M420.5,500c0,0-11-68.427-21-85.714C389.5,397,379.289,352.5,356.644,356
		C334,359.5,339,391.305,350,427.902L377,500H420.5"/>
	<path style="fill:none;stroke:#36819A;stroke-width:2.2219;stroke-linecap:round;stroke-linejoin:round;stroke-miterlimit:10;" d="
		M355,362.541c0,0,37,109.959,43,137.459"/>
	<path style="fill:#36819A;" d="M403.5,500c0,0-3-88.842,20.5-107.671c0,0,4-4.671,16,0c12,4.671,19,7.044,25.5,24.358
		c6.5,17.314,12.5,57.53,0,60.672c-12.5,3.142-27.894-25.246-27.894-25.246S433,484,434,500H403.5z"/>
	<path style="fill:#153F4D;" d="M434.582,479.3c1.089-13.786,3.024-27.188,3.024-27.188S430,431.066,427,411.697
		C427,411.697,417.077,452.748,434.582,479.3z"/>
	
		<line style="fill:none;stroke:#459EA8;stroke-width:2.2219;stroke-linecap:round;stroke-linejoin:round;stroke-miterlimit:10;" x1="445.475" y1="394.5" x2="465.5" y2="477.358"/>
	<path style="fill:#4FB2AC;" d="M438.085,272.126C406,261,353.606,239.64,345.303,195.82c0,0-9.835,85.659,43.494,134.18h35.402
		l-18.838,12.476c8.749,5.4,18.736,9.941,30.139,13.329c0,0,29.5,6.278,45,6.737c15.5,0.459,19.5,3.75,19.5,3.75V316.5
		C500,316.5,470.17,283.253,438.085,272.126z"/>
	<path style="fill:none;stroke:#36819A;stroke-width:2.2219;stroke-linecap:round;stroke-linejoin:round;stroke-miterlimit:10;" d="
		M418.5,305.424c6.968,3.509,14.273,6.412,21.826,8.666c20.263,6.046,51.712,17.822,59.674,34.41"/>
	<path style="fill:none;stroke:#36819A;stroke-width:2.2219;stroke-linecap:round;stroke-linejoin:round;stroke-miterlimit:10;" d="
		M345.303,195.82c0,0,2.075,33.134,24.131,66.345c7.974,12.006,17.906,22.42,29.257,30.965"/>
	
		<line style="fill:none;stroke:#36819A;stroke-width:2.2219;stroke-linecap:round;stroke-linejoin:round;stroke-miterlimit:10;" x1="372.435" y1="266.481" x2="349.503" y2="257.78"/>
	
		<line style="fill:none;stroke:#36819A;stroke-width:2.2219;stroke-linecap:round;stroke-linejoin:round;stroke-miterlimit:10;" x1="445.475" y1="315.681" x2="438.085" y2="272.126"/>
	
		<line style="fill:none;stroke:#36819A;stroke-width:2.2219;stroke-linecap:round;stroke-linejoin:round;stroke-miterlimit:10;" x1="384.251" y1="280.449" x2="355" y2="277.149"/>
	<g>
		<path style="fill:#36819A;" d="M0,191.93c0,0,36.973-57.478,87.32-84.537l-20.522-26.46l32.838,11.654
			c0,0,16.673-7.587,23.019-18.253L82.941,55l45.029,12.667l15.188-17.542l-22.696-10.57L147,43.667c0,0,21.21-22,25.605-43.667H0
			V191.93z"/>
		
			<path style="fill:none;stroke:#4FB2AC;stroke-width:2.2219;stroke-linecap:round;stroke-linejoin:round;stroke-miterlimit:10;" d="
			M-0.5,89c0,0,8.441-41.5,41.97-63.5S72.5,0,72.5,0"/>
		
			<path style="fill:none;stroke:#4FB2AC;stroke-width:2.2219;stroke-linecap:round;stroke-linejoin:round;stroke-miterlimit:10;" d="
			M55.92,15.605c58.58-4.355,107.005,7.153,107.005,7.153"/>
		
			<line style="fill:none;stroke:#4FB2AC;stroke-width:2.2219;stroke-linecap:round;stroke-linejoin:round;stroke-miterlimit:10;" x1="-0.5" y1="123.959" x2="53.12" y2="131.427"/>
		
			<line style="fill:none;stroke:#4FB2AC;stroke-width:2.2219;stroke-linecap:round;stroke-linejoin:round;stroke-miterlimit:10;" x1="-0.5" y1="143.434" x2="35.249" y2="149.389"/>
		
			<path style="fill:none;stroke:#4FB2AC;stroke-width:2.2219;stroke-linecap:round;stroke-linejoin:round;stroke-miterlimit:10;" d="
			M14,0.5l6.93,44c0,0,25.192,0.143,62.011,10.5"/>
		
			<line style="fill:none;stroke:#4FB2AC;stroke-width:2.2219;stroke-linecap:round;stroke-linejoin:round;stroke-miterlimit:10;" x1="45.991" y1="22.5" x2="45.991" y2="0"/>
	</g>
	<g>
		<path style="fill:none;stroke:#36819A;stroke-width:2;stroke-linecap:round;stroke-linejoin:round;stroke-miterlimit:10;" d="
			M-0.5,257.78c0,0,24.951-52.375,92.267-78.573"/>
		<path style="fill:#36819A;" d="M61.68,194.056c0,0-3.014-33.387,7.653-41.055c10.667-7.668,0,36.638,0,36.638L61.68,194.056z"/>
		<path style="fill:#36819A;" d="M38.6,210.652c0,0-5.993-29.151,2.87-44.235c8.863-15.084,9.086,24.543,5.975,37.23
			c0,0,31.691-9.268,44.322,8.686C98.333,221.667,38.6,210.652,38.6,210.652z"/>
		<path style="fill:#36819A;" d="M69.333,189.639c0,0,41.565-0.972,43.449,10.695c1.884,11.667-51.102-6.277-51.102-6.277
			L69.333,189.639z"/>
		<path style="fill:#36819A;" d="M84.753,182.098c0,0-1.218-29.519,7.015-34.975c8.233-5.457,3.566,21.543,3.566,21.543
			s23.333-23.448,34.333-16.557c11,6.891-22.489,23.224-22.489,23.224s27.267-4.058,25.984,5.333
			C131.333,194.056,84.753,182.098,84.753,182.098z"/>
		<path style="fill:#36819A;" d="M26.31,222.019c0,0,6.69-40.019-4.643-40.352c-11.333-0.333-3.084,45.3-4.042,49.816
			c0,0,39.709,12.517,52.042,1.85C82,222.667,26.31,222.019,26.31,222.019z"/>
		<path style="fill:#36819A;" d="M9.227,242.165c0,0,6.44-32.862-2.56-32.513c-9,0.349-0.736,37.265-0.736,37.265L9.227,242.165z"/>
		<path style="fill:#36819A;" d="M9.227,242.165c0,0,34.107-4.498,41.107,6.502c7,11-44.403-1.75-44.403-1.75L9.227,242.165z"/>
	</g>
	<g>
		<path style="fill:#39759A;" d="M189.401,405.162c-5.101,5.4-12.962,6.258-17.557,1.916c-4.596-4.341-4.186-12.238,0.915-17.638
			c5.101-5.4,12.962-6.258,17.557-1.916C194.912,391.866,194.502,399.763,189.401,405.162z"/>
		
			<ellipse transform="matrix(0.6867 -0.7269 0.7269 0.6867 -229.4092 254.7142)" style="fill:#FF7B34;" cx="180.818" cy="393.52" rx="12.375" ry="11.447"/>
		<path style="fill:#514769;" d="M190.98,386.557c0.661-0.892,0.47-2.26-0.494-3.171c-0.954-0.901-2.312-1.021-3.167-0.335
			c-1.573-0.908-3.334-1.398-5.139-1.465c-0.282,2.156,0.908,4.965,3.271,7.197c2.308,2.18,5.101,3.211,7.22,2.882
			C192.53,389.85,191.96,388.099,190.98,386.557z"/>
		<polyline style="fill:none;stroke:#514769;stroke-linecap:round;stroke-linejoin:round;stroke-miterlimit:10;" points="
			188.172,377.258 189.316,384.525 196.168,384.812 		"/>
		<path style="fill:#514769;" d="M178.977,390.069c-0.855,0.905-2.283,0.946-3.189,0.091c-0.906-0.855-0.946-2.283-0.091-3.189
			c0.855-0.906,2.283-0.946,3.189-0.091C179.792,387.736,179.832,389.164,178.977,390.069z"/>
		<path style="fill:#514769;" d="M182.58,401.907c-0.638,0.675-1.702,0.705-2.376,0.068c-0.675-0.638-0.705-1.702-0.068-2.376
			c0.637-0.675,1.701-0.705,2.376-0.068C183.187,400.169,183.217,401.233,182.58,401.907z"/>
		<path style="fill:#514769;" d="M175.139,397.144c-0.392,0.415-1.047,0.434-1.462,0.042c-0.415-0.392-0.434-1.047-0.041-1.462
			c0.392-0.415,1.047-0.434,1.462-0.042C175.512,396.074,175.531,396.729,175.139,397.144z"/>
		<path style="fill:#514769;" d="M187.265,396.602c-0.83,0.878-2.214,0.918-3.092,0.088c-0.878-0.83-0.918-2.214-0.088-3.092
			s2.214-0.918,3.092-0.088C188.056,394.339,188.095,395.724,187.265,396.602z"/>
		
			<line style="fill:none;stroke:#514769;stroke-linecap:round;stroke-linejoin:round;stroke-miterlimit:10;" x1="185.451" y1="388.784" x2="172.912" y2="403.032"/>
	</g>
	<g>
		<path style="fill:#514769;" d="M48.073,97.465c0,3.633-2.946,6.579-6.579,6.579s-6.579-2.945-6.579-6.579
			c0-3.634,2.945-6.579,6.579-6.579S48.073,93.832,48.073,97.465z"/>
		<path style="fill:#F8EBCC;" d="M48.073,94.465c0,3.633-2.946,6.579-6.579,6.579s-6.579-2.945-6.579-6.579
			c0-3.634,2.945-6.579,6.579-6.579S48.073,90.832,48.073,94.465z"/>
	</g>
	<g>
		<circle style="fill:#514769;" cx="124.46" cy="24" r="6.579"/>
		<circle style="fill:#F8EBCC;" cx="124.46" cy="21" r="6.579"/>
	</g>
	<g>
		<path style="fill:#514769;" d="M469.813,318c0,3.634-2.945,6.579-6.579,6.579c-3.634,0-6.579-2.945-6.579-6.579
			s2.945-6.579,6.579-6.579C466.867,311.421,469.813,314.366,469.813,318z"/>
		<path style="fill:#F8EBCC;" d="M469.813,315c0,3.634-2.945,6.579-6.579,6.579c-3.634,0-6.579-2.945-6.579-6.579
			s2.945-6.579,6.579-6.579C466.867,308.421,469.813,311.366,469.813,315z"/>
	</g>
	<g>
		<path style="fill:#514769;" d="M323.039,50.005c0,2.872-2.328,5.201-5.201,5.201c-2.872,0-5.201-2.328-5.201-5.201
			c0-2.872,2.328-5.201,5.201-5.201C320.711,44.804,323.039,47.132,323.039,50.005z"/>
		<path style="fill:#F8EBCC;" d="M323.039,47.633c0,2.872-2.328,5.201-5.201,5.201c-2.872,0-5.201-2.328-5.201-5.201
			c0-2.872,2.328-5.201,5.201-5.201C320.711,42.433,323.039,44.761,323.039,47.633z"/>
	</g>
</g>
</svg>
